Release : Hop 2011 Blu-ray AC3 Dual Audio [Hindi-English] !TAIMOOR!
Release Date: 	11 April 2011  (INDIA)
  
Release Length: 1h 35mn



Storyline
E.B., the Easter Bunny's teenage son, heads to Hollywood, determined to become a drummer in a rock 'n' roll band. In LA, he's taken in by Fred after the out-of-work slacker hits E.B. with his car. 

Title............................: Hop 2011 Blu-ray AC3 Dual Audio [Hindi-English] !TAIMOOR!.mkv
Genre............................: Animation | Comedy | Family
Plot Keys Word...................: # Slacker # Easter Bunny # Easter # Drummer 
Official Sites...................:
Directer.........................: Tim Hill
Writer...........................: Cinco Paul (screenplay), Ken Daurio 
IMDB.............................: http://www.imdb.com/title/tt1411704/
year.............................: 11 April 2011 (INDIA)
User Rating......................: Ratings: 5.2/10 from 6,841 users   Metascore: 41/100   
VIDEO Source.....................: Bluray 720p                                       
File size........................: 1.45 GiB
Run time.........................: 1h 35mn
Languages........................: English,Hindi
Ripper...........................: !TAIMOOR!

General

Complete name                    : Hop 2011 Blu-ray AC3 Dual Audio [Hindi-English] !TAIMOOR!.mkv
Format                           : Matroska
Format version                   : Version 2
File size                        : 1.45 GiB
Duration                         : 1h 35mn
Overall bit rate                 : 2 188 Kbps
Movie name                       : Hop 2011 Blu-ray AC3 Dual Audio [Hindi-English] !TAIMOOR!
Encoded date                     : UTC 2011-10-15 18:02:47
Writing application              : mkvmerge v4.9.1 ('Ich will') built on Jul 11 2011 23:53:15
Writing library                  : libebml v1.2.1 + libmatroska v1.1.1

Video
ID                               : 1
Format                           : AVC
Format/Info                      : Advanced Video Codec
Format profile                   : High@L4.1
Format settings, CABAC           : Yes
Format settings, ReFrames        : 4 frames
Format settings, GOP             : M=4, N=46
Muxing mode                      : Header stripping
Codec ID                         : V_MPEG4/ISO/AVC
Duration                         : 1h 35mn
Bit rate                         : 1 611 Kbps
Width                            : 1 024 pixels
Height                           : 560 pixels
Display aspect ratio             : 16:9
Frame rate                       : 23.976 fps
Color space                      : YUV
Chroma subsampling               : 4:2:0
Bit depth                        : 8 bits
Scan type                        : Progressive
Bits/(Pixel*Frame)               : 0.117
Stream size                      : 1.04 GiB (72%)
Title                            : Hop 2011 Blu-ray AC3 Dual Audio [Hindi-English] !TAIMOOR!
Writing library                  : x264 core 116 r2044 392e762
Encoding settings                : cabac=1 / ref=3 / deblock=1:0:0 / analyse=0x3:0x113 / me=umh / subme=7 / psy=1 / psy_rd=1.00:0.00 / mixed_ref=1 / me_range=16 / chroma_me=1 / trellis=1 / 8x8dct=1 / cqm=0 / deadzone=21,11 / fast_pskip=1 / chroma_qp_offset=-2 / threads=12 / sliced_threads=0 / nr=0 / decimate=1 / interlaced=0 / bluray_compat=0 / constrained_intra=0 / bframes=3 / b_pyramid=2 / b_adapt=1 / b_bias=0 / direct=3 / weightb=1 / open_gop=0 / weightp=2 / keyint=250 / keyint_min=23 / scenecut=40 / intra_refresh=0 / rc_lookahead=40 / rc=2pass / mbtree=1 / bitrate=1611 / ratetol=1.0 / qcomp=0.60 / qpmin=10 / qpmax=51 / qpstep=4 / cplxblur=20.0 / qblur=0.5 / ip_ratio=1.40 / aq=1:1.00

Audio #1
ID                               : 2
Format                           : MPEG Audio
Format version                   : Version 1
Format profile                   : Layer 3
Mode                             : Joint stereo
Mode extension                   : MS Stereo
Muxing mode                      : Header stripping
Codec ID                         : A_MPEG/L3
Codec ID/Hint                    : MP3
Duration                         : 1h 34mn
Bit rate mode                    : Variable
Bit rate                         : 128 Kbps
Channel(s)                       : 2 channels
Sampling rate                    : 48.0 KHz
Compression mode                 : Lossy
Delay relative to video          : 700ms
Stream size                      : 86.9 MiB (6%)
Title                            : !TAIMOOR!
Writing library                  : LAME3.98.4
Language                         : Hindi

Audio #2
ID                               : 3
Format                           : AC-3
Format/Info                      : Audio Coding 3
Mode extension                   : CM (complete main)
Muxing mode                      : Header stripping
Codec ID                         : A_AC3
Duration                         : 1h 35mn
Bit rate mode                    : Constant
Bit rate                         : 448 Kbps
Channel(s)                       : 6 channels
Channel positions                : Front: L C R, Side: L R, LFE
Sampling rate                    : 48.0 KHz
Bit depth                        : 16 bits
Compression mode                 : Lossy
Stream size                      : 304 MiB (20%)
Title                            : !TAIMOOR!
Language                         : English

[img]http://img641.imageshack.us/img641/8804/72317003.jpg[/img]
[img]http://imageshack.us/photo/my-images/3/68705217.jpg/[/img]
[img]http://img600.imageshack.us/img600/9692/37338890.jpg[/img]
[img]http://img593.imageshack.us/img593/2200/20503765.jpg[/img]
[img]http://img830.imageshack.us/img830/2928/20000508.jpg[/img]
